<svg width="0" height="0" class="hidden">
  <symbol aria-hidden="true" focusable="false" data-prefix="fas" data-icon="bars" role="img" xmlns="http://www.w3.org/2000/svg" viewBox="0 0 448 512" id="bars-solid">
    <path fill="currentColor" d="M16 132h416c8.837 0 16-7.163 16-16V76c0-8.837-7.163-16-16-16H16C7.163 60 0 67.163 0 76v40c0 8.837 7.163 16 16 16zm0 160h416c8.837 0 16-7.163 16-16v-40c0-8.837-7.163-16-16-16H16c-8.837 0-16 7.163-16 16v40c0 8.837 7.163 16 16 16zm0 160h416c8.837 0 16-7.163 16-16v-40c0-8.837-7.163-16-16-16H16c-8.837 0-16 7.163-16 16v40c0 8.837 7.163 16 16 16z"></path>
  </symbol>
  <symbol aria-hidden="true" focusable="false" data-prefix="fas" data-icon="chevron-circle-left" role="img" xmlns="http://www.w3.org/2000/svg" viewBox="0 0 512 512" id="chevron-circle-left-solid">
    <path fill="currentColor" d="M256 504C119 504 8 393 8 256S119 8 256 8s248 111 248 248-111 248-248 248zM142.1 273l135.5 135.5c9.4 9.4 24.6 9.4 33.9 0l17-17c9.4-9.4 9.4-24.6 0-33.9L226.9 256l101.6-101.6c9.4-9.4 9.4-24.6 0-33.9l-17-17c-9.4-9.4-24.6-9.4-33.9 0L142.1 239c-9.4 9.4-9.4 24.6 0 34z"></path>
  </symbol>
  <symbol aria-hidden="true" focusable="false" data-prefix="fas" data-icon="chevron-circle-right" role="img" xmlns="http://www.w3.org/2000/svg" viewBox="0 0 512 512" id="chevron-circle-right-solid">
    <path fill="currentColor" d="M256 8c137 0 248 111 248 248S393 504 256 504 8 393 8 256 119 8 256 8zm113.9 231L234.4 103.5c-9.4-9.4-24.6-9.4-33.9 0l-17 17c-9.4 9.4-9.4 24.6 0 33.9L285.1 256 183.5 357.6c-9.4 9.4-9.4 24.6 0 33.9l17 17c9.4 9.4 24.6 9.4 33.9 0L369.9 273c9.4-9.4 9.4-24.6 0-34z"></path>
  </symbol>
  <symbol aria-hidden="true" focusable="false" data-prefix="fas" data-icon="ellipsis-h" role="img" xmlns="http://www.w3.org/2000/svg" viewBox="0 0 512 512" id="ellipsis-h-solid">
    <path fill="currentColor" d="M328 256c0 39.8-32.2 72-72 72s-72-32.2-72-72 32.2-72 72-72 72 32.2 72 72zm104-72c-39.8 0-72 32.2-72 72s32.2 72 72 72 72-32.2 72-72-32.2-72-72-72zm-352 0c-39.8 0-72 32.2-72 72s32.2 72 72 72 72-32.2 72-72-32.2-72-72-72z"></path>
  </symbol>
  <symbol aria-hidden="true" focusable="false" data-prefix="fas" data-icon="circle" role="img" xmlns="http://www.w3.org/2000/svg" viewBox="0 0 512 512" id="circle-solid">
    <path fill="currentColor" d="M256 8C119 8 8 119 8 256s111 248 248 248 248-111 248-248S393 8 256 8z"></path>
  </symbol>
  <symbol aria-hidden="true" focusable="false" data-prefix="fas" data-icon="mouse" role="img" xmlns="http://www.w3.org/2000/svg" viewBox="0 0 384 512" id="mouse-solid">
    <path fill="currentColor" d="M0 352a160 160 0 0 0 160 160h64a160 160 0 0 0 160-160V224H0zM176 0h-16A160 160 0 0 0 0 160v32h176zm48 0h-16v192h176v-32A160 160 0 0 0 224 0z"></path>
  </symbol>
  <symbol aria-hidden="true" focusable="false" data-prefix="fas" data-icon="search" role="img" xmlns="http://www.w3.org/2000/svg" viewBox="0 0 512 512" id="search-solid">
    <path fill="currentColor" d="M505 442.7L405.3 343c-4.5-4.5-10.6-7-17-7H372c27.6-35.3 44-79.7 44-128C416 93.1 322.9 0 208 0S0 93.1 0 208s93.1 208 208 208c48.3 0 92.7-16.4 128-44v16.3c0 6.4 2.5 12.5 7 17l99.7 99.7c9.4 9.4 24.6 9.4 33.9 0l28.3-28.3c9.4-9.4 9.4-24.6.1-34zM208 336c-70.7 0-128-57.2-128-128 0-70.7 57.2-128 128-128 70.7 0 128 57.2 128 128 0 70.7-57.2 128-128 128z"></path>
  </symbol>
</svg>